<svg version="1" xmlns="http://www.w3.org/2000/svg" width="346.667" height="346.667" viewBox="0 0 260.000000 260.000000"><path d="M133.9 14.5c-15 3.7-29.9 13.8-39.8 27-2.2 2.9-2.5 3-10.9 3.1-6.8 0-9.8.5-13.9 2.3-6.4 2.9-13.6 10.3-16.8 17.4-2 4.6-2.8 5.5-6.3 6.5-6 1.8-15.7 9.4-19.7 15.5-9.8 14.8-10.8 30.3-2.9 45.9 3.4 6.6 11.6 14.9 18.4 18.3 6 3 16.3 5.5 23.3 5.5H70v42h-3.4c-2.5 0-3.6-.5-4.1-1.9-3.6-11.5-20.4-13.9-27.8-3.9-2.9 3.8-3.4 12.3-1 16.8 4.3 8.2 15.3 10.7 23 5.1 2.2-1.6 4.5-4.3 5.3-6 1.2-3 1.4-3.1 7.4-3.1 3.5 0 6.7-.5 7.4-1.2 1.8-1.8 1.7-53.1 0-54.6-.7-.5-6.2-1.2-12.3-1.4-9.4-.3-11.9-.8-17.1-3.2-13.9-6.3-22.3-20.3-21.2-35.5C27.3 93.9 39 79.4 52.7 76.5c3.9-.8 4.8-1.8 6.2-7.1 1.7-6.4 6.3-11.8 12.5-14.9 4.9-2.4 6.4-2.7 11.8-2.2 3.5.3 7.5.9 8.9 1.2 2.4.6 3.1.1 6.8-5.4 5.2-7.6 10.9-13.2 18.5-18.2 7.9-5.2 15-7.7 26-9.1 8-1 10.6-.9 17.7.5 19.3 3.8 35.5 15.9 43.8 32.8 4 8.1 7 19.1 7.1 25.5 0 3.7.8 4.4 7.2 6.8 16.4 6.1 24.6 26.2 17.2 42.6-4.8 10.7-16.9 19-27.7 19-4.6 0-6.7 1.3-6.7 4.2 0 3 3.3 3.9 10.4 2.9 16.5-2.4 28.9-13.4 33.2-29.6 4.7-17.6-4.4-37.1-21-44.9l-5.3-2.5-.7-6c-1.6-13.9-8.9-28.4-19.8-39.3-6.5-6.5-9.4-8.5-18-12.7-5.7-2.7-12.7-5.4-15.6-6-7.2-1.5-24.4-1.2-31.3.4zM53.1 195.9c3.5 3.6 3.7 7 .5 10.7-1.8 2.1-3.2 2.8-6 2.8-7.6 0-11-9-5.2-14 3.7-3.2 7.1-3 10.7.5z"/><path d="M147.7 32.7c-1.4 1.3-.7 5.2 1.1 6.1.9.5 4.4 1.2 7.6 1.5 7.6.8 16.8 5.3 22.9 11.2 5.4 5.3 9 5.9 9.5 1.4.7-5.6-16-17.2-28.6-19.8-6-1.2-11.5-1.4-12.5-.4zM190.2 63.7c-.7 1.1-.5 3.2.4 6.2.8 2.5 1.4 6.1 1.4 7.9 0 6.3 3.9 9.4 7 5.7 1.5-1.8.7-9.5-1.6-16.8-1.3-3.8-2-4.7-3.9-4.7-1.3 0-2.8.8-3.3 1.7zM86.2 149.2c-1.6 1.6-1.5 3.3.4 5.2 1.2 1.3 3.8 1.6 12 1.6H109v27.5c0 23.2-.2 27.5-1.4 27.5-2.7 0-8.4 6.4-9.5 10.8-3.2 11.7 7.7 22.7 19.1 19.3 14.1-4.3 15.8-22.9 2.7-29.7l-2.9-1.5v-29.7c0-21.9-.3-30.1-1.2-31-1.7-1.7-27.9-1.7-29.6 0zm32.8 71c1.3 1.4 2 3.5 2 5.9 0 7.1-8.5 10.5-13.5 5.4-3.1-3-3.2-7.3-.4-10.9 2.7-3.4 8.8-3.7 11.9-.4zM125.2 149.2c-1.6 1.6-1.5 3.3.4 5.2 1.2 1.3 3.8 1.6 12 1.6H148v27.5c0 24.5-.2 27.5-1.6 27.5-2.6 0-8.1 6.3-9.5 10.8-2.4 8 2.7 16.8 11.2 19.3 10.7 3.3 21.7-7.1 19.5-18.3-.8-4-4.9-9.4-8.7-11.3l-2.9-1.6v-29.7c0-21.9-.3-30.1-1.2-31-1.7-1.7-27.9-1.7-29.6 0zm32.5 71c3.3 3.1 3.2 9-.3 11.7-5.6 4.4-13.4.8-13.4-6 0-7 8.5-10.6 13.7-5.7zM164.2 149.2c-1.8 1.8-1.4 4.6.7 5.8 1.1.5 6.5 1 12 1H187v23.3c0 16.8.3 23.6 1.2 24.5.7.7 3.9 1.2 7.4 1.2h6.1l2.7 4.3c3.4 5.4 7.5 7.7 13.5 7.7 5.3 0 9.9-2.5 13.5-7.3 2.8-3.8 2.8-12.6 0-16.4-8-10.7-23.5-9.4-28.4 2.4-.7 1.8-1.8 2.3-4.5 2.3H195v-23.4c0-20-.2-23.7-1.6-25-1.2-1.3-4.1-1.6-14.8-1.6-8.9 0-13.6.4-14.4 1.2zm57.1 45c4.6 2.4 5.8 6.3 3.6 11.2-2.3 5-11.3 5.5-13.8.7-4.1-7.5 3-15.8 10.2-11.9z"/></svg>